<svg width="24" height="24" viewBox="0 0 24 24" fill="none" xmlns="http://www.w3.org/2000/svg">
<path d="M12.0201 20.53C9.69011 20.53 7.36011 20.16 5.15011 19.42C4.31011 19.13 3.67011 18.54 3.39011 17.77C3.10011 17 3.20011 16.15 3.66011 15.39L4.81011 13.48C5.05011 13.08 5.27011 12.28 5.27011 11.81V8.92C5.27011 5.2 8.30011 2.17 12.0201 2.17C15.7401 2.17 18.7701 5.2 18.7701 8.92V11.81C18.7701 12.27 18.9901 13.08 19.2301 13.49L20.3701 15.39C20.8001 16.11 20.8801 16.98 20.5901 17.77C20.3001 18.56 19.6701 19.16 18.8801 19.42C16.6801 20.16 14.3501 20.53 12.0201 20.53ZM12.0201 3.67C9.13011 3.67 6.77011 6.02 6.77011 8.92V11.81C6.77011 12.54 6.47011 13.62 6.10011 14.25L4.95011 16.16C4.73011 16.53 4.67011 16.92 4.80011 17.25C4.92011 17.59 5.22011 17.85 5.63011 17.99C9.81011 19.39 14.2401 19.39 18.4201 17.99C18.7801 17.87 19.0601 17.6 19.1901 17.24C19.3201 16.88 19.2901 16.49 19.0901 16.16L17.9401 14.25C17.5601 13.6 17.2701 12.53 17.2701 11.8V8.92C17.2701 6.02 14.9201 3.67 12.0201 3.67Z" fill="white"/>
<path d="M13.8801 3.94C13.8101 3.94 13.7401 3.93 13.6701 3.91C13.3801 3.83 13.1001 3.77 12.8301 3.73C11.9801 3.62 11.1601 3.68 10.3901 3.91C10.1101 4 9.81011 3.91 9.62011 3.7C9.43011 3.49 9.37011 3.19 9.48011 2.92C9.89011 1.87 10.8901 1.18 12.0301 1.18C13.1701 1.18 14.1701 1.86 14.5801 2.92C14.6801 3.19 14.6301 3.49 14.4401 3.7C14.2901 3.86 14.0801 3.94 13.8801 3.94Z" fill="white"/>
<path d="M12.02 22.81C11.03 22.81 10.07 22.41 9.37002 21.71C8.67002 21.01 8.27002 20.05 8.27002 19.06H9.77002C9.77002 19.65 10.01 20.23 10.43 20.65C10.85 21.07 11.43 21.31 12.02 21.31C13.26 21.31 14.27 20.3 14.27 19.06H15.77C15.77 21.13 14.09 22.81 12.02 22.81Z" fill="white"/>
</svg>
