<svg width="28" height="28" viewBox="0 0 28 28" fill="none" xmlns="http://www.w3.org/2000/svg">
<path d="M13.4166 25.375C6.82492 25.375 1.45825 20.0083 1.45825 13.4167C1.45825 6.825 6.82492 1.45833 13.4166 1.45833C20.0082 1.45833 25.3749 6.825 25.3749 13.4167C25.3749 20.0083 20.0082 25.375 13.4166 25.375ZM13.4166 3.20833C7.78158 3.20833 3.20825 7.79333 3.20825 13.4167C3.20825 19.04 7.78158 23.625 13.4166 23.625C19.0516 23.625 23.6249 19.04 23.6249 13.4167C23.6249 7.79333 19.0516 3.20833 13.4166 3.20833Z" fill="white"/>
<path d="M25.6666 26.5417C25.4449 26.5417 25.2233 26.46 25.0483 26.285L22.7149 23.9517C22.3766 23.6133 22.3766 23.0533 22.7149 22.715C23.0533 22.3767 23.6133 22.3767 23.9516 22.715L26.2849 25.0483C26.6233 25.3867 26.6233 25.9467 26.2849 26.285C26.1099 26.46 25.8883 26.5417 25.6666 26.5417Z" fill="white"/>
</svg>
