<svg width="540" height="536" viewBox="0 0 540 536" fill="none" xmlns="http://www.w3.org/2000/svg">
<path d="M125.187 405.603L167 338.224L73.3587 277.207L25 355.134L102.453 405.603H125.187Z" fill="#F0F0F0"/>
<path fill-rule="evenodd" clip-rule="evenodd" d="M80 424.964H183V404.583H80V424.964ZM181.662 423.649H81.3377V405.898H181.662V423.649Z" fill="#3F3D56"/>
<path d="M171.5 421.907C175.09 421.907 178 418.941 178 415.283C178 411.625 175.09 408.66 171.5 408.66C167.91 408.66 165 411.625 165 415.283C165 418.941 167.91 421.907 171.5 421.907Z" fill="#222F65"/>
<path d="M151.5 421.907C155.09 421.907 158 418.941 158 415.283C158 411.625 155.09 408.66 151.5 408.66C147.91 408.66 145 411.625 145 415.283C145 418.941 147.91 421.907 151.5 421.907Z" fill="#222F65"/>
<path d="M133.5 421.907C137.09 421.907 140 418.941 140 415.283C140 411.625 137.09 408.66 133.5 408.66C129.91 408.66 127 411.625 127 415.283C127 418.941 129.91 421.907 133.5 421.907Z" fill="#222F65"/>
<path d="M114.5 421.907C118.09 421.907 121 418.941 121 415.283C121 411.625 118.09 408.66 114.5 408.66C110.91 408.66 108 411.625 108 415.283C108 418.941 110.91 421.907 114.5 421.907Z" fill="#222F65"/>
<path d="M95.5 421.907C99.0899 421.907 102 418.941 102 415.283C102 411.625 99.0899 408.66 95.5 408.66C91.9101 408.66 89 411.625 89 415.283C89 418.941 91.9101 421.907 95.5 421.907Z" fill="#222F65"/>
<path d="M307.462 189.511V137.465H333V112.126H208V239.503H314.855V227.049C314.855 222.361 316.683 217.864 319.936 214.549C323.19 211.234 327.602 209.371 332.203 209.371H333V189.511H307.462Z" fill="#F0F0F0"/>
<rect width="41.046" height="41.7344" transform="matrix(0.969207 -0.246245 0.237665 0.971347 47.6495 10.8418)" fill="#F0F0F0"/>
<rect x="362" y="441.268" width="84" height="17.3232" fill="#222F65"/>
<rect x="340" y="353.633" width="123" height="16.3042" fill="#F0F0F0"/>
<rect y="533.999" width="524" height="1.01857" fill="#3F3D56"/>
<path fill-rule="evenodd" clip-rule="evenodd" d="M331.035 535.017H483.965C493.921 535.006 501.989 526.788 502 516.648V227.302C501.989 217.162 493.921 208.944 483.965 208.933H331.035C321.079 208.944 313.011 217.162 313 227.302V516.648C313.011 526.788 321.079 535.006 331.035 535.017ZM314.345 227.302C314.356 217.918 321.822 210.314 331.035 210.303H483.965C493.178 210.314 500.644 217.918 500.655 227.302V516.648C500.644 526.032 493.178 533.637 483.965 533.647H331.035C321.822 533.637 314.356 526.032 314.345 516.648V227.302Z" fill="#3F3D56"/>
<path fill-rule="evenodd" clip-rule="evenodd" d="M386 219.123C386 221.374 387.791 223.199 390 223.199C392.208 223.197 393.998 221.373 394 219.123C394 216.872 392.209 215.047 390 215.047C387.791 215.047 386 216.872 386 219.123ZM387.333 219.123C387.333 217.622 388.527 216.406 390 216.406C391.472 216.407 392.665 217.623 392.667 219.123C392.667 220.624 391.473 221.84 390 221.84C388.527 221.84 387.333 220.624 387.333 219.123Z" fill="#3F3D56"/>
<rect x="400" y="218.104" width="30" height="1.01857" fill="#3F3D56"/>
<path d="M491 228.294V283.321C461.177 283.32 437.001 258.684 437 228.294H491Z" fill="#222F65"/>
<path fill-rule="evenodd" clip-rule="evenodd" d="M325 516.675H491V228.294H325V516.675ZM489.656 515.305H326.344V229.664H489.656V515.305Z" fill="#3F3D56"/>
<path opacity="0.1" d="M451.5 280.264C461.717 280.264 470 271.824 470 261.412C470 251.001 461.717 242.56 451.5 242.56C441.283 242.56 433 251.001 433 261.412C433 271.824 441.283 280.264 451.5 280.264Z" fill="black"/>
<path d="M448.5 282.302C458.717 282.302 467 273.862 467 263.45C467 253.038 458.717 244.598 448.5 244.598C438.283 244.598 430 253.038 430 263.45C430 273.862 438.283 282.302 448.5 282.302Z" fill="#222F65"/>
<rect x="332" y="239.503" width="26" height="9.17113" fill="#3F3D56"/>
<rect x="346" y="331.214" width="26" height="9.17113" fill="#3F3D56"/>
<path fill-rule="evenodd" clip-rule="evenodd" d="M347 366.88H471V349.557H347V366.88ZM469.652 365.547H348.348V350.889H469.652V365.547Z" fill="#3F3D56"/>
<rect x="340" y="405.603" width="123" height="16.3042" fill="#F0F0F0"/>
<rect x="346" y="382.165" width="26" height="9.17113" fill="#3F3D56"/>
<path fill-rule="evenodd" clip-rule="evenodd" d="M347 418.85H471V401.527H347V418.85ZM469.652 417.517H348.348V402.859H469.652V417.517Z" fill="#3F3D56"/>
<path fill-rule="evenodd" clip-rule="evenodd" d="M366 454.515H451V436.173H366V454.515ZM449.651 453.205H367.349V437.483H449.651V453.205Z" fill="#3F3D56"/>
<path d="M466 360.256C466 363.05 464.28 365.543 461.7 366.489C459.121 367.434 456.237 366.629 454.491 364.475L454.484 364.469C452.783 362.366 452.52 359.416 453.82 357.035C455.12 354.654 457.719 353.328 460.368 353.693C463.018 354.058 465.178 356.039 465.812 358.687C465.811 358.688 465.812 358.69 465.813 358.691C465.815 358.693 465.816 358.693 465.818 358.693C465.938 359.205 465.999 359.73 466 360.256Z" fill="#222F65"/>
<path opacity="0.1" d="M466 359.874C466 362.829 464.235 365.466 461.589 366.466C458.943 367.466 455.985 366.614 454.193 364.337L454.187 364.33C454.064 363.788 454.001 363.233 454 362.677C454 359.722 455.765 357.085 458.411 356.085C461.057 355.085 464.015 355.937 465.807 358.214C465.807 358.216 465.807 358.218 465.809 358.219C465.81 358.22 465.812 358.221 465.813 358.221C465.936 358.763 465.999 359.318 466 359.874Z" fill="black"/>
<path d="M462.5 369.937C466.09 369.937 469 366.972 469 363.314C469 359.655 466.09 356.69 462.5 356.69C458.91 356.69 456 359.655 456 363.314C456 366.972 458.91 369.937 462.5 369.937Z" fill="#222F65"/>
<path d="M466 411.207C466 414.001 464.28 416.494 461.7 417.439C459.121 418.385 456.237 417.58 454.491 415.426L454.484 415.419C452.783 413.317 452.52 410.367 453.82 407.986C455.12 405.605 457.719 404.278 460.368 404.643C463.018 405.008 465.178 406.99 465.812 409.637C465.811 409.639 465.812 409.641 465.813 409.642C465.815 409.643 465.816 409.644 465.818 409.644C465.938 410.156 465.999 410.681 466 411.207Z" fill="#222F65"/>
<path opacity="0.1" d="M466 411.844C466 414.799 464.235 417.436 461.589 418.436C458.943 419.436 455.985 418.584 454.193 416.307L454.187 416.3C454.064 415.758 454.001 415.203 454 414.646C454 411.691 455.765 409.055 458.411 408.054C461.057 407.054 464.015 407.906 465.807 410.184C465.807 410.186 465.807 410.188 465.809 410.189C465.81 410.19 465.812 410.191 465.813 410.191C465.936 410.732 465.999 411.287 466 411.844Z" fill="black"/>
<path d="M462.5 421.907C466.09 421.907 469 418.941 469 415.283C469 411.625 466.09 408.66 462.5 408.66C458.91 408.66 456 411.625 456 415.283C456 418.941 458.91 421.907 462.5 421.907Z" fill="#222F65"/>
<rect x="315" y="144.735" width="35" height="35.6655" fill="#F0F0F0"/>
<path fill-rule="evenodd" clip-rule="evenodd" d="M443 162.058C443 166.56 446.582 170.21 451 170.21C455.416 170.205 458.995 166.558 459 162.058C459 157.556 455.418 153.906 451 153.906C446.582 153.906 443 157.556 443 162.058ZM444.333 162.058C444.333 158.306 447.318 155.265 451 155.265C454.68 155.269 457.662 158.308 457.667 162.058C457.667 165.81 454.682 168.852 451 168.852C447.318 168.852 444.333 165.81 444.333 162.058Z" fill="#3F3D56"/>
<path fill-rule="evenodd" clip-rule="evenodd" d="M257 285.359H274V268.036H257V285.359ZM272.692 284.026H258.308V269.368H272.692V284.026Z" fill="#3F3D56"/>
<path fill-rule="evenodd" clip-rule="evenodd" d="M523 418.85H540V401.527H523V418.85ZM538.692 417.517H524.308V402.859H538.692V417.517Z" fill="#3F3D56"/>
<path d="M195 299.527L197.998 301.184L208.198 306.825L224.665 315.929L234.262 297.659C236.087 294.192 236.494 290.122 235.392 286.347C234.29 282.573 231.77 279.402 228.387 277.536C221.044 273.467 211.981 274.729 205.96 280.659L205.955 280.664C204.511 282.087 203.292 283.732 202.343 285.541L195 299.527Z" fill="#2F2E41"/>
<path d="M240 483.13L238.069 506.444L230.827 507.504L226 481.01L240 483.13Z" fill="#FFB8B8"/>
<path d="M228.352 508.134C228.352 508.134 237.927 502.905 239.943 507.088C239.943 507.088 238.431 519.639 244.479 521.208C250.527 522.776 253.047 533.758 244.479 534.804C235.912 535.85 230.368 532.712 227.344 532.712C224.32 532.712 227.344 521.731 227.344 521.731L228.352 508.134Z" fill="#2F2E41"/>
<path d="M179 483.13L180.931 506.444L188.173 507.504L193 481.01L179 483.13Z" fill="#FFB8B8"/>
<path d="M191.648 508.134C191.648 508.134 182.073 502.905 180.057 507.088C180.057 507.088 181.569 519.639 175.521 521.208C169.473 522.776 166.953 533.758 175.521 534.804C184.088 535.85 189.632 532.712 192.656 532.712C195.68 532.712 192.656 521.731 192.656 521.731L191.648 508.134Z" fill="#2F2E41"/>
<path d="M219.5 303.701C226.956 303.701 233 297.542 233 289.944C233 282.347 226.956 276.188 219.5 276.188C212.044 276.188 206 282.347 206 289.944C206 297.542 212.044 303.701 219.5 303.701Z" fill="#FFB8B8"/>
<path d="M179 315.725L189.495 332.737L201.988 331.706L222.477 333.253C222.477 333.253 224.411 329.263 225.991 325.381C226.855 323.442 227.52 321.416 227.974 319.334C228.474 315.726 221.478 312.117 221.478 312.117C221.478 312.117 221.203 312.065 220.743 311.952C220.134 311.803 219.194 311.555 218.165 311.194C215.841 310.38 213.047 308.998 212.483 306.962C211.483 303.353 218.979 298.198 218.979 298.198L209.984 289.435C209.984 289.435 201.993 300.884 192.288 303.493C191.725 303.646 191.155 303.766 190.579 303.853C190.549 303.859 190.524 303.864 190.494 303.869C179.999 305.415 179 315.725 179 315.725Z" fill="#FFB8B8"/>
<path d="M184.264 311.853L178.477 316.478C178.477 316.478 173.741 338.573 175.319 344.739C176.898 350.905 174.793 356.557 174.793 357.585C174.793 358.612 170.058 397.15 170.058 397.15C170.058 397.15 160.587 417.704 170.584 415.648C180.581 413.593 176.898 393.039 176.898 393.039L189 357.071V326.755L184.264 311.853Z" fill="#FFB8B8"/>
<path d="M224.046 315.929L228.137 318.986L230.183 361.78L245.525 398.461C245.525 398.461 256.776 416.292 249.616 416.802C242.456 417.311 237.854 398.461 237.854 398.461L224.046 363.309L222 329.175L224.046 315.929Z" fill="#FFB8B8"/>
<path d="M198.734 317.967C198.734 317.967 208.821 325.18 224.96 322.604C224.96 322.604 229.499 331.877 226.978 337.028C224.456 342.18 230.004 354.544 231.012 356.089C232.021 357.634 243.621 389.574 247.656 424.09C251.69 458.605 262.786 482.303 253.203 485.394C243.621 488.485 223.951 492.091 221.934 489C219.917 485.909 216.891 409.15 216.891 409.15L211.343 438.514C211.343 438.514 218.908 488.485 213.36 489.515C207.812 490.545 173.013 487.454 174.021 481.272C175.03 475.09 185.117 442.636 185.117 442.636C185.117 442.636 184.613 377.726 194.7 365.362C194.7 365.362 198.734 358.665 193.187 349.907C187.639 341.149 188.143 327.24 188.143 327.24C188.143 327.24 192.178 327.24 198.734 317.967Z" fill="#2F2E41"/>
<path d="M190 304.06L198.08 323.062L200 322.036L191.642 303.701L190 304.06Z" fill="#2F2E41"/>
<path d="M218 311.853L224.452 326.119L226 325.981L225.474 323.553L220.636 312.608C220.013 312.459 219.052 312.213 218 311.853Z" fill="#2F2E41"/>
<path d="M197.377 300.668C198.366 303.996 201.167 306.38 204.484 306.717C207.802 307.055 210.989 305.281 212.574 302.215C206.208 293.512 211.668 288.045 222.01 283.91C223.603 280.818 223.251 277.026 221.119 274.313C215.346 273.541 209.548 275.536 205.343 279.743L205.338 279.748L197.991 293.996C196.933 296.042 196.712 298.449 197.377 300.668Z" fill="#2F2E41"/>
<path d="M212.5 294.53C213.328 294.53 214 293.161 214 291.473C214 289.785 213.328 288.416 212.5 288.416C211.672 288.416 211 289.785 211 291.473C211 293.161 211.672 294.53 212.5 294.53Z" fill="#FFB8B8"/>
<path d="M218 286.501L233.212 293.511L236 287.253C235.52 284.966 234.514 282.826 233.065 281.01L222.595 276.188L218 286.501Z" fill="#2F2E41"/>
<path d="M254.5 423.945C258.09 423.945 261 420.979 261 417.321C261 413.663 258.09 410.698 254.5 410.698C250.91 410.698 248 413.663 248 417.321C248 420.979 250.91 423.945 254.5 423.945Z" fill="#222F65"/>
<path d="M38.5 464.705C40.9853 464.705 43 462.652 43 460.12C43 457.587 40.9853 455.534 38.5 455.534C36.0147 455.534 34 457.587 34 460.12C34 462.652 36.0147 464.705 38.5 464.705Z" fill="#FF6584"/>
<rect x="59" y="484.067" width="1" height="50.9507" fill="#3F3D56"/>
<path d="M60 490.181C63.866 490.181 67 486.987 67 483.048C67 479.108 63.866 475.915 60 475.915C56.134 475.915 53 479.108 53 483.048C53 486.987 56.134 490.181 60 490.181Z" fill="#3F3D56"/>
<path d="M59 514.637C59 514.637 58.0233 492.96 38 495.48L59 514.637Z" fill="#3F3D56"/>
</svg>
